<svg width="22" height="22" viewBox="0 0 22 22" fill="none" xmlns="http://www.w3.org/2000/svg">
<path fill-rule="evenodd" clip-rule="evenodd" d="M11.0001 21.4C13.7583 21.4 16.4036 20.3043 18.354 18.3539C20.3044 16.4035 21.4001 13.7583 21.4001 11C21.4001 8.24175 20.3044 5.59647 18.354 3.6461C16.4036 1.69572 13.7583 0.600006 11.0001 0.600006C8.24185 0.600006 5.59657 1.69572 3.64619 3.6461C1.69581 5.59647 0.600098 8.24175 0.600098 11C0.600098 13.7583 1.69581 16.4035 3.64619 18.3539C5.59657 20.3043 8.24185 21.4 11.0001 21.4ZM11.9192 8.01911C12.156 7.77392 12.287 7.44554 12.2841 7.10468C12.2811 6.76383 12.1444 6.43777 11.9034 6.19674C11.6623 5.95571 11.3363 5.81899 10.9954 5.81603C10.6546 5.81307 10.3262 5.9441 10.081 6.18091L6.181 10.0809C5.93729 10.3247 5.80037 10.6553 5.80037 11C5.80037 11.3447 5.93729 11.6753 6.181 11.9191L10.081 15.8191C10.3262 16.0559 10.6546 16.1869 10.9954 16.184C11.3363 16.181 11.6623 16.0443 11.9034 15.8033C12.1444 15.5622 12.2811 15.2362 12.2841 14.8953C12.287 14.5545 12.156 14.2261 11.9192 13.9809L10.2383 12.3H14.9001C15.2449 12.3 15.5755 12.163 15.8193 11.9192C16.0631 11.6754 16.2001 11.3448 16.2001 11C16.2001 10.6552 16.0631 10.3246 15.8193 10.0808C15.5755 9.83697 15.2449 9.70001 14.9001 9.70001H10.2383L11.9192 8.01911Z" fill="#307FE2"/>
</svg>
