<svg width="50" height="50" viewBox="0 0 50 50" fill="none" xmlns="http://www.w3.org/2000/svg">
<path d="M34.7656 23.7305C36.114 23.7305 37.207 22.6374 37.207 21.2891C37.207 19.9407 36.114 18.8477 34.7656 18.8477C33.4173 18.8477 32.3242 19.9407 32.3242 21.2891C32.3242 22.6374 33.4173 23.7305 34.7656 23.7305Z" fill="#0458FD"/>
<path d="M25 23.7305C26.3484 23.7305 27.4414 22.6374 27.4414 21.2891C27.4414 19.9407 26.3484 18.8477 25 18.8477C23.6516 18.8477 22.5586 19.9407 22.5586 21.2891C22.5586 22.6374 23.6516 23.7305 25 23.7305Z" fill="#0458FD"/>
<path d="M15.2344 23.7305C16.5827 23.7305 17.6758 22.6374 17.6758 21.2891C17.6758 19.9407 16.5827 18.8477 15.2344 18.8477C13.886 18.8477 12.793 19.9407 12.793 21.2891C12.793 22.6374 13.886 23.7305 15.2344 23.7305Z" fill="#0458FD"/>
<path d="M48.0469 0H1.95312C0.874414 0 0 0.874414 0 1.95312V40.625C0 41.7037 0.874414 42.5781 1.95312 42.5781H19.236L23.3486 49.0898C23.7065 49.6564 24.3299 50 25 50C25.6701 50 26.2935 49.6564 26.6514 49.0898L30.764 42.5781H48.0469C49.1256 42.5781 50 41.7037 50 40.625V1.95312C50 0.874414 49.1256 0 48.0469 0ZM46.0938 38.6719H29.6875C29.0174 38.6719 28.394 39.0154 28.0361 39.582L25 44.3893L21.9639 39.582C21.606 39.0154 20.9826 38.6719 20.3125 38.6719H3.90625V3.90625H46.0938V38.6719Z" fill="#0458FD"/>
</svg>
