<svg width="15" height="13" viewBox="0 0 15 13" fill="none" xmlns="http://www.w3.org/2000/svg">
<path fill-rule="evenodd" clip-rule="evenodd" d="M7.57988 1.55455C7.34179 1.27648 7.06422 1.03369 6.758 0.831169C6.08129 0.383633 5.26463 0.132812 4.4247 0.132812C2.26515 0.132812 0.568359 1.8203 0.568359 3.96801C0.568359 4.73114 0.747674 5.4558 1.05484 6.14522C2.00755 8.28546 4.19034 10.0916 6.06925 11.6462C6.61018 12.0938 7.12593 12.5206 7.57988 12.9284C8.03384 12.5206 8.54958 12.0938 9.09052 11.6462C10.9694 10.0916 13.1521 8.28553 14.1049 6.14533C14.4121 5.45588 14.5914 4.73118 14.5914 3.96801C14.5914 1.8203 12.8946 0.132812 10.7351 0.132812C9.89514 0.132812 9.07848 0.383633 8.40177 0.831169C8.09554 1.03369 7.81798 1.27648 7.57988 1.55455ZM7.57988 11.0588C7.80621 10.8686 8.03755 10.6769 8.26854 10.4854C8.4642 10.3232 8.6596 10.1612 8.85147 10.0006C9.61957 9.35767 10.3714 8.70446 11.0372 8.01991C11.8611 7.17277 12.4734 6.3574 12.83 5.5526C13.0652 5.02124 13.1891 4.49493 13.1891 3.96801C13.1891 2.63119 12.1457 1.55455 10.7351 1.55455C9.9018 1.55455 9.12418 1.91974 8.63883 2.48658L7.57988 3.72329L6.52094 2.48658C6.03558 1.91974 5.25797 1.55455 4.4247 1.55455C3.01404 1.55455 1.97066 2.63119 1.97066 3.96801C1.97066 4.49493 2.09459 5.02124 2.32975 5.5526C2.68633 6.3574 3.29866 7.17277 4.12257 8.01991C4.78834 8.70446 5.54019 9.35767 6.30829 10.0006C6.50017 10.1612 6.69557 10.3232 6.89123 10.4854C7.12222 10.6769 7.35356 10.8686 7.57988 11.0588Z" fill="#6875F5"/>
</svg>
