<svg width="8" height="12" viewBox="0 0 8 12" xmlns="http://www.w3.org/2000/svg">
<path d="M0.191324 6.46824L5.53148 11.8083C5.65499 11.9319 5.81986 12 5.99567 12C6.17147 12 6.33635 11.9319 6.45986 11.8083L6.85312 11.4151C7.10902 11.1589 7.10902 10.7425 6.85312 10.4867L2.36887 6.00249L6.8581 1.51326C6.98161 1.38965 7.04981 1.22487 7.04981 1.04916C7.04981 0.873261 6.98161 0.708482 6.8581 0.584775L6.46483 0.191706C6.34123 0.0680971 6.17645 -7.63515e-08 6.00064 -9.17207e-08C5.82484 -1.0709e-07 5.65996 0.068097 5.53645 0.191706L0.191324 5.53664C0.0675202 5.66064 -0.000479158 5.8262 -8.86442e-05 6.00219C-0.000479189 6.17888 0.0675202 6.34434 0.191324 6.46824Z"/>
</svg>
