<svg width="27" height="27" viewBox="0 0 27 27" fill="none" xmlns="http://www.w3.org/2000/svg">
<g clip-path="url(#clip0)">
<path d="M5.98377 16.3163L5.04394 19.8249L1.60887 19.8975C0.582293 17.9935 0 15.8149 0 13.4999C0 11.2613 0.54443 9.15022 1.50947 7.29138H1.51021L4.56838 7.85205L5.90804 10.8919C5.62765 11.7093 5.47483 12.5868 5.47483 13.4999C5.47494 14.4909 5.65444 15.4404 5.98377 16.3163Z" fill="#FBBB00"/>
<path d="M26.7642 10.978C26.9192 11.7947 27.0001 12.6381 27.0001 13.5C27.0001 14.4665 26.8985 15.4093 26.7049 16.3187C26.0477 19.4133 24.3305 22.1155 21.9517 24.0278L21.951 24.027L18.099 23.8305L17.5539 20.4273C19.1323 19.5016 20.3659 18.0529 21.0157 16.3187H13.7969V10.978H21.121H26.7642Z" fill="#518EF8"/>
<path d="M21.9509 24.0271L21.9516 24.0278C19.6381 25.8874 16.6992 27 13.5 27C8.35889 27 3.88907 24.1265 1.60889 19.8977L5.98378 16.3165C7.12385 19.3592 10.059 21.5252 13.5 21.5252C14.9791 21.5252 16.3647 21.1253 17.5537 20.4273L21.9509 24.0271Z" fill="#28B446"/>
<path d="M22.1173 3.10795L17.7439 6.68841C16.5133 5.91922 15.0587 5.47488 13.5003 5.47488C9.98138 5.47488 6.99135 7.74019 5.90839 10.892L1.5105 7.29148H1.50977C3.75657 2.95961 8.28276 0 13.5003 0C16.7759 0 19.7793 1.1668 22.1173 3.10795Z" fill="#F14336"/>
</g>
<defs>
<clipPath id="clip0">
<rect width="27" height="27" rx="10" fill="white"/>
</clipPath>
</defs>
</svg>
