<svg width="23" height="26" viewBox="0 0 23 26" fill="none" xmlns="http://www.w3.org/2000/svg">
<path d="M22.983 11.8468C22.751 11.3065 22.3642 10.8702 21.8851 10.6086L4.03578 0.868125C2.85994 0.225695 1.445 0.779907 0.875335 2.10593C0.585119 2.78155 0.560723 3.56384 0.808198 4.26077L3.91199 13.0097L0.808198 21.7595C0.324752 23.132 0.919507 24.6867 2.1366 25.2319C2.4118 25.3551 2.70506 25.4192 3.00119 25.4207C3.35947 25.4207 3.71313 25.3295 4.03578 25.1539L21.8851 15.4108C23.061 14.7685 23.5526 13.1728 22.983 11.8468ZM3.34894 23.5505C2.95693 23.7645 2.48531 23.5796 2.29555 23.1376C2.19884 22.9123 2.1908 22.6516 2.27332 22.4193L5.2951 13.8989H21.0358L3.34894 23.5505ZM5.29515 12.1204L2.27337 3.6C2.1476 3.26037 2.22568 2.86816 2.46812 2.62179C2.7028 2.36391 3.05715 2.30342 3.34894 2.47152L21.0358 12.1204H5.29515Z" fill="#6875F5"/>
</svg>
