<svg width="16" height="15" viewBox="0 0 16 15" fill="none" xmlns="http://www.w3.org/2000/svg">
<path d="M0.666748 14.1344H3.33341V6.05747H0.666748V14.1344ZM15.3334 6.73054C15.3334 5.99016 14.7334 5.38439 14.0001 5.38439H9.79341L10.4267 2.30843L10.4467 2.09304C10.4467 1.81708 10.3334 1.56131 10.1534 1.37958L9.44675 0.672852L5.06008 5.10843C4.81341 5.35074 4.66675 5.68727 4.66675 6.05747V12.7882C4.66675 13.5286 5.26675 14.1344 6.00008 14.1344H12.0001C12.5534 14.1344 13.0267 13.7979 13.2267 13.3132L15.2401 8.56804C15.3001 8.41324 15.3334 8.2517 15.3334 8.0767V6.73054Z" fill="#6875F5"/>
</svg>
